<svg xmlns="http://www.w3.org/2000/svg" aria-hidden="true" style="position:absolute;width:0;height:0;overflow:hidden">
  <defs>
    <symbol id="icon-arrow-narrow-right" viewBox="0 0 32 32">
      <path stroke-linecap="round" stroke-linejoin="round" stroke-width="2" d="M5.333 16h21.333M18.667 8l8 8-8 8"/>
    </symbol>
    <symbol id="icon-arrow-narrow-left" viewBox="0 0 32 32">
      <path stroke-linecap="round" stroke-linejoin="round" stroke-width="2" d="M26.667 16H5.334M13.333 24l-8-8 8-8"/>
    </symbol>
    <symbol id="icon-arrow-narrow-down" viewBox="0 0 32 32">
      <path stroke-width="3.2" d="m24 12-8 8-8-8"/>
    </symbol>
    <symbol id="icon-arrow-narrow-up" viewBox="0 0 32 32">
      <path stroke-width="3.556" d="m24 20-8-8-8 8"/>
    </symbol>
    <symbol id="icon-icon-burger" viewBox="0 0 64 32">
      <path stroke-linecap="round" stroke-linejoin="round" stroke-width="5.333" d="M4 5.111h56M4 26.889h56"/>
    </symbol>
    <symbol id="icon-icon-time" viewBox="0 0 23 32">
      <path stroke-linecap="round" stroke-linejoin="round" stroke-width="2.909" d="M20.6 1.455H2.673C2 1.455 1.455 2 1.455 2.673c0 3.877 1.54 7.595 4.281 10.336l1.773 1.773c.176.176.264.264.327.349a1.454 1.454 0 0 1 0 1.739 3.703 3.703 0 0 1-.327.349l-1.773 1.773a14.617 14.617 0 0 0-4.281 10.336c0 .673.545 1.218 1.218 1.218H20.6c.673 0 1.218-.545 1.218-1.218 0-3.877-1.54-7.595-4.281-10.336l-1.773-1.773a3.58 3.58 0 0 1-.327-.349 1.454 1.454 0 0 1 0-1.739 3.58 3.58 0 0 1 .327-.349l1.773-1.773a14.617 14.617 0 0 0 4.281-10.336c0-.673-.545-1.218-1.218-1.218z"/>
    </symbol>
    <symbol id="icon-icon-message" viewBox="0 0 33 32">
      <path stroke-linecap="round" stroke-linejoin="round" stroke-width="2.909" d="M7.41 14.878a11.71 11.71 0 0 1-.137-1.787c0-6.427 5.244-11.636 11.713-11.636s11.713 5.21 11.713 11.636a11.54 11.54 0 0 1-.756 4.123c-.102.266-.152.399-.175.503s-.032.175-.034.281c-.002.106.012.224.041.458l.585 4.757c.063.515.095.772.009.96a.73.73 0 0 1-.374.366c-.189.081-.446.044-.959-.032l-4.633-.679c-.242-.035-.363-.053-.473-.052a1.357 1.357 0 0 0-.291.031 4.298 4.298 0 0 0-.521.177 11.855 11.855 0 0 1-5.92.61m-7.552 5.951c4.313 0 7.809-3.582 7.809-8s-3.496-8-7.809-8c-4.313 0-7.809 3.582-7.809 8 0 .888.141 1.742.402 2.541.11.337.165.506.183.621.019.12.022.188.015.31a3.636 3.636 0 0 1-.094.511l-.889 4.017 4.356-.595c.238-.032.357-.049.46-.048.109.001.167.007.275.028.102.02.253.074.556.18a7.645 7.645 0 0 0 2.544.434z"/>
    </symbol>
    <symbol id="icon-icon-x" viewBox="0 0 32 32">
      <path stroke-linecap="round" stroke-linejoin="round" stroke-width="2.667" d="M24 8 8 24M8 8l16 16"/>
    </symbol>
    <symbol id="icon-icon-brush" viewBox="0 0 32 32">
      <path stroke-linecap="round" stroke-linejoin="round" stroke-width="2.667" d="M17.037 20 12 14.963M2.667 29.333c2.667 0 6.144.456 7.966-1.367a4.668 4.668 0 0 0-6.6-6.6c-1.823 1.823 0 5.3-1.367 7.966z"/>
      <path stroke-linecap="round" stroke-linejoin="round" stroke-width="2.667" d="M10.667 21.333c-.655-.655-.983-.983-1.168-1.326a2.668 2.668 0 0 1 .05-2.623c.198-.336.538-.651 1.218-1.28L23.924 3.921a2.94 2.94 0 0 1 4.153 4.153L15.894 21.231c-.63.68-.944 1.02-1.28 1.218-.805.475-1.8.495-2.623.051-.343-.185-.671-.513-1.326-1.168z"/>
    </symbol>
    <symbol id="icon-icon-user" viewBox="0 0 32 32">
      <path stroke-linecap="round" stroke-linejoin="round" stroke-width="2.667" d="M26.667 28c0-1.861 0-2.791-.23-3.548a5.333 5.333 0 0 0-3.556-3.556c-.757-.23-1.687-.23-3.548-.23h-6.667c-1.861 0-2.791 0-3.548.23a5.335 5.335 0 0 0-3.556 3.556c-.23.757-.23 1.687-.23 3.548M16 16a6 6 0 1 0 0-12 6 6 0 0 0 0 12z"/>
    </symbol>
    <symbol id="icon-jefferson" viewBox="0 0 64 32">
      <path d="M55.944 15.159l0.233-4.937-4.314 2.686-1.336-2.219 4.58-2.251-4.58-2.251 1.336-2.249 4.314 2.684-0.235-4.936h2.643l-0.235 4.936 4.312-2.684 1.336 2.249-4.578 2.251 4.58 2.251-1.336 2.219-4.314-2.686 0.235 4.937h-2.643zM46.212 7.159v2.833h-10.842v-2.833h10.842zM38.325 25.263v-20.211c0-1.122 0.264-2.056 0.791-2.801 0.538-0.757 1.237-1.318 2.097-1.685 0.87-0.376 1.803-0.567 2.801-0.567 0.768 0 1.421 0.060 1.958 0.179 0.54 0.119 0.936 0.22 1.186 0.307l-0.892 2.85c-0.151-0.050-0.376-0.111-0.603-0.164l-0.067-0.013c-0.274-0.063-0.59-0.099-0.913-0.099-0.030 0-0.059 0-0.089 0.001l0.004-0c-0.904 0-1.557 0.216-1.958 0.648-0.401 0.422-0.602 1.035-0.602 1.845v19.71h-3.712z"></path>
      <path d="M36.107 7.159v2.833h-10.842v-2.833h10.842zM28.22 25.263v-20.211c0-1.122 0.264-2.056 0.791-2.801 0.536-0.757 1.237-1.318 2.095-1.685 0.872-0.376 1.805-0.567 2.803-0.567 0.766 0 1.419 0.060 1.958 0.179s0.934 0.22 1.186 0.307l-0.894 2.85c-0.151-0.050-0.375-0.111-0.602-0.164l-0.067-0.013c-0.274-0.063-0.59-0.099-0.913-0.099-0.030 0-0.059 0-0.089 0.001l0.004-0c-0.904 0-1.559 0.216-1.958 0.648-0.403 0.422-0.602 1.035-0.602 1.845v19.71h-3.712zM17.291 25.263c-1.82 0-3.396-0.38-4.725-1.139-1.322-0.756-2.375-1.849-3.061-3.165l-0.020-0.043c-0.71-1.391-1.064-3.012-1.064-4.86 0-1.839 0.348-3.46 1.048-4.86 0.681-1.366 1.698-2.476 2.944-3.252l0.034-0.020c1.288-0.791 2.797-1.188 4.527-1.188 1.054 0 2.074 0.166 3.063 0.497 0.986 0.331 1.875 0.856 2.662 1.572 0.789 0.715 1.41 1.647 1.864 2.792 0.467 1.144 0.7 2.522 0.7 4.137v1.252h-14.795v-2.615h12.932l-1.681 0.866c0-1.101-0.179-2.074-0.533-2.918-0.333-0.819-0.885-1.492-1.583-1.965l-0.015-0.010c-0.698-0.48-1.57-0.721-2.613-0.721s-1.935 0.241-2.679 0.721c-0.721 0.475-1.294 1.12-1.669 1.881l-0.012 0.028c-0.39 0.791-0.584 1.656-0.584 2.598v1.783c0 1.229 0.222 2.272 0.666 3.127 0.444 0.856 1.060 1.508 1.847 1.958 0.8 0.448 1.726 0.674 2.78 0.674 0.687 0 1.308-0.096 1.864-0.29 0.565-0.192 1.054-0.48 1.464-0.866 0.41-0.384 0.721-0.86 0.932-1.427l3.428 0.625c-0.277 0.962-0.764 1.807-1.464 2.536-0.726 0.737-1.609 1.316-2.595 1.684l-0.049 0.016c-1.054 0.395-2.259 0.593-3.612 0.593zM2.878 7.012h3.416v19.375c0.009 1.216-0.201 2.24-0.632 3.076-0.433 0.834-1.065 1.464-1.897 1.886-0.834 0.433-1.856 0.651-3.068 0.651h-0.696v-3.042h0.553c0.823 0 1.412-0.222 1.771-0.666 0.358-0.446 0.542-1.086 0.553-1.92v-19.36zM4.57 4.213c-0.602 0-1.111-0.205-1.534-0.617-0.39-0.365-0.633-0.883-0.633-1.458 0-0.007 0-0.015 0-0.022v0.001c0-0.587 0.211-1.086 0.632-1.498 0.422-0.41 0.934-0.617 1.534-0.617 0.591 0 1.096 0.207 1.517 0.617 0.433 0.414 0.649 0.911 0.649 1.498 0 0.574-0.216 1.067-0.649 1.48-0.38 0.382-0.905 0.618-1.485 0.618-0.011 0-0.022-0-0.033-0l0.002 0z"></path>
    </symbol>
  </defs>
</svg>
